<svg xmlns="http://www.w3.org/2000/svg" viewBox="0 0 512 512">
  <rect width="512" height="512" fill="#0A0B14" rx="80"/>
  <circle cx="256" cy="256" r="30" fill="none" stroke="#FF6B35" stroke-width="6"/>
  <circle cx="256" cy="256" r="8" fill="#FF6B35"/>
  <line x1="256" y1="226" x2="256" y2="152" stroke="#FF6B35" stroke-width="4" opacity="0.75"/>
  <line x1="256" y1="286" x2="256" y2="360" stroke="#FF6B35" stroke-width="4" opacity="0.75"/>
  <line x1="226" y1="256" x2="152" y2="256" stroke="#FF6B35" stroke-width="4" opacity="0.75"/>
  <line x1="286" y1="256" x2="360" y2="256" stroke="#FF6B35" stroke-width="4" opacity="0.75"/>
  <line x1="235" y1="235" x2="182" y2="182" stroke="#FF6B35" stroke-width="2.5" opacity="0.38"/>
  <line x1="277" y1="235" x2="330" y2="182" stroke="#FF6B35" stroke-width="2.5" opacity="0.38"/>
  <line x1="235" y1="277" x2="182" y2="330" stroke="#FF6B35" stroke-width="2.5" opacity="0.38"/>
  <line x1="277" y1="277" x2="330" y2="330" stroke="#FF6B35" stroke-width="2.5" opacity="0.38"/>
  <circle cx="256" cy="136" r="18" fill="none" stroke="#FF6B35" stroke-width="5"/>
  <circle cx="256" cy="376" r="18" fill="none" stroke="#FF6B35" stroke-width="5"/>
  <circle cx="136" cy="256" r="18" fill="none" stroke="#FF6B35" stroke-width="5"/>
  <circle cx="376" cy="256" r="18" fill="none" stroke="#FF6B35" stroke-width="5"/>
  <rect x="163" y="163" width="14" height="14" rx="3" fill="#FF6B35" opacity="0.5"/>
  <rect x="335" y="163" width="14" height="14" rx="3" fill="#FF6B35" opacity="0.5"/>
  <rect x="163" y="335" width="14" height="14" rx="3" fill="#FF6B35" opacity="0.5"/>
  <rect x="335" y="335" width="14" height="14" rx="3" fill="#FF6B35" opacity="0.5"/>
</svg>