<svg xmlns="http://www.w3.org/2000/svg" viewBox="0 0 512 512">
  <rect width="512" height="512" fill="#0D0520" rx="80"/>
  <polygon points="256,88 360,200 256,432 152,200" fill="none" stroke="#A855F7" stroke-width="7" stroke-linejoin="round"/>
  <line x1="152" y1="200" x2="360" y2="200" stroke="#A855F7" stroke-width="5"/>
  <line x1="256" y1="88" x2="152" y2="200" stroke="#A855F7" stroke-width="4" opacity="0.7"/>
  <line x1="256" y1="88" x2="360" y2="200" stroke="#A855F7" stroke-width="4" opacity="0.7"/>
  <polygon points="256,88 360,200 256,200" fill="#A855F7" opacity="0.28"/>
  <polygon points="256,200 360,200 256,432" fill="#A855F7" opacity="0.13"/>
  <polygon points="152,200 256,200 256,432" fill="#A855F7" opacity="0.07"/>
  <circle cx="390" cy="108" r="4" fill="#A855F7" opacity="0.85"/>
  <line x1="390" y1="93" x2="390" y2="123" stroke="#A855F7" stroke-width="1.8" opacity="0.65"/>
  <line x1="375" y1="108" x2="405" y2="108" stroke="#A855F7" stroke-width="1.8" opacity="0.65"/>
  <circle cx="144" cy="370" r="3" fill="#A855F7" opacity="0.5"/>
  <line x1="144" y1="360" x2="144" y2="380" stroke="#A855F7" stroke-width="1.5" opacity="0.4"/>
  <line x1="134" y1="370" x2="154" y2="370" stroke="#A855F7" stroke-width="1.5" opacity="0.4"/>
</svg>